<svg width="171" height="61" viewBox="0 0 171 61" fill="none" xmlns="http://www.w3.org/2000/svg">
<g filter="url(#filter0_d_58_71028)">
<path d="M91.4872 2.59325C93.0725 0.901473 95.4071 0.0805559 97.6896 0.0110605C100.113 -0.0866674 102.722 0.449753 104.537 2.1589C105.96 3.4576 106.655 5.33397 106.967 7.19297C105.223 7.19732 103.482 7.19949 101.738 7.1908C101.436 6.38943 101.08 5.54245 100.348 5.04078C98.643 3.8637 95.9023 4.3871 94.9706 6.31125C94.1497 7.99651 94.3104 10.2964 95.7264 11.6211C96.8882 12.6636 98.732 12.8112 100.089 12.0815C100.975 11.6081 101.412 10.6569 101.742 9.75996C103.484 9.75562 105.226 9.75344 106.969 9.75996C106.696 11.2628 106.238 12.7787 105.269 13.9905C104.059 15.5693 102.157 16.4858 100.22 16.7812C97.7439 17.1612 95.0597 16.9006 92.9118 15.5281C91.1701 14.4379 89.9539 12.6028 89.5348 10.6026C88.9397 7.83581 89.4848 4.6868 91.4872 2.59325Z" fill="black"/>
<path d="M82.1291 0.427955C83.8209 0.43447 85.5126 0.43664 87.2023 0.425781C87.2109 5.80299 87.2044 11.1802 87.2066 16.5574C85.5127 16.5552 83.8187 16.5574 82.1269 16.5552C82.1334 11.1802 82.1269 5.80299 82.1291 0.427955Z" fill="black"/>
<path d="M113.884 0.436685C115.535 0.427998 117.185 0.428001 118.838 0.438859C121.123 5.81389 123.442 11.1759 125.72 16.5553C123.922 16.5574 122.122 16.5574 120.323 16.5553C120.019 15.7582 119.711 14.9656 119.403 14.1707C117.368 14.1642 115.333 14.1685 113.3 14.1685C112.994 14.9612 112.692 15.7582 112.397 16.5553C110.592 16.5574 108.787 16.5596 106.982 16.5531C109.258 11.1715 111.593 5.81389 113.884 0.436685ZM114.77 10.3572C115.823 10.3724 116.877 10.3724 117.93 10.3572C117.424 8.96942 116.951 7.5643 116.349 6.21349C115.745 7.5643 115.272 8.96725 114.77 10.3572Z" fill="black"/>
<path d="M3 16.5552C5.30203 11.178 7.60624 5.80298 9.92347 0.434462C11.4524 0.445321 12.9834 0.401886 14.5123 0.440977C14.9489 0.384512 15.027 0.894869 15.1899 1.18154C17.3551 6.31116 19.5833 11.4147 21.7399 16.5487C19.9395 16.5617 18.137 16.5639 16.3366 16.5465C16.0282 15.756 15.811 14.9155 15.3593 14.1902C13.3461 14.1294 11.3308 14.1837 9.31973 14.1728C9.02221 14.9699 8.72251 15.7669 8.41412 16.5596C6.60942 16.553 4.80471 16.5596 3 16.5552ZM10.79 10.3593C11.8455 10.3723 12.9031 10.3745 13.9585 10.3549C13.4569 8.9433 12.9313 7.54253 12.3949 6.14394C11.7977 7.52516 11.3112 8.94765 10.79 10.3593Z" fill="black"/>
<path d="M27.1758 1.28151C27.28 0.999184 27.3104 0.664739 27.5406 0.454081C29.2259 0.384585 30.9155 0.460595 32.6008 0.425847C33.5672 3.45324 34.3924 6.52189 35.3849 9.53843C36.3839 6.52624 37.2526 3.47061 38.193 0.438877C39.9217 0.428018 41.6525 0.423672 43.3812 0.443218C44.8689 5.81825 46.3717 11.1889 47.8767 16.5596C46.0546 16.5509 44.2325 16.5683 42.4105 16.5488C41.6764 13.8059 40.9424 11.0652 40.1736 8.33312C39.2832 11.0543 38.51 13.8124 37.6783 16.5509C36.1537 16.5575 34.6292 16.5705 33.1046 16.5401C32.2967 13.8493 31.5453 11.1412 30.6505 8.47862C29.8231 11.152 29.1238 13.8645 28.3529 16.5553C26.546 16.5575 24.7413 16.5596 22.9344 16.5531C24.3265 11.4561 25.7837 6.37639 27.1758 1.28151Z" fill="black"/>
<path d="M49.3274 0.458369C53.66 0.410591 57.9926 0.440994 62.3274 0.443165C62.3317 1.76141 62.3339 3.07965 62.3231 4.40006C59.6866 4.40006 57.0501 4.39572 54.4158 4.40224C54.4114 5.12325 54.4136 5.84644 54.4201 6.56962C56.6092 6.56745 58.7962 6.56311 60.9853 6.56962C60.9918 7.86614 60.9983 9.16049 60.9744 10.457C58.7875 10.4462 56.6027 10.4462 54.4158 10.457C54.4136 11.165 54.4136 11.873 54.4158 12.5831C57.0479 12.5962 59.6822 12.5918 62.3144 12.5853C62.3404 13.9079 62.3361 15.2326 62.3209 16.5552C57.9926 16.5509 53.6622 16.5574 49.3339 16.5531C49.3339 11.1889 49.347 5.82254 49.3274 0.458369Z" fill="black"/>
<path d="M64.3123 0.45833C66.4601 0.406209 68.6079 0.449644 70.7558 0.43227C72.9601 0.377977 75.3642 0.534342 77.1732 1.94597C79.1582 3.44446 79.6034 6.39367 78.5783 8.57843C78.1592 9.50359 77.3752 10.1812 76.5782 10.774C77.8704 12.7112 79.1886 14.631 80.4938 16.5595C78.4915 16.5552 76.4913 16.5574 74.4912 16.5574C73.4987 14.9981 72.4801 13.4518 71.5181 11.8708C70.8122 11.8469 70.1064 11.8447 69.4028 11.8447C69.3963 13.4149 69.3984 14.985 69.3984 16.5574C67.7045 16.5552 66.0105 16.5595 64.3188 16.5552C64.3209 11.1888 64.3318 5.82467 64.3123 0.45833ZM69.4028 4.46952C69.3963 5.58145 69.3963 6.69337 69.4006 7.80747C70.6863 7.75969 72.0979 8.04419 73.2728 7.38398C74.2197 6.85408 74.1654 5.30997 73.1903 4.84088C72.0219 4.248 70.6602 4.52816 69.4028 4.46952Z" fill="black"/>
<path d="M127.245 0.441061C128.606 0.45192 129.97 0.373734 131.33 0.464947C131.775 0.764646 132.079 1.22288 132.427 1.62465C134.225 3.81375 136.038 5.99417 137.852 8.17025C137.875 5.5924 137.856 3.01456 137.862 0.438887C139.561 0.428029 141.261 0.428029 142.959 0.438887C142.964 5.81175 142.981 11.189 142.951 16.5618C141.563 16.5531 140.173 16.5596 138.785 16.5553C136.624 14.0361 134.516 11.4713 132.324 8.97813C132.314 11.506 132.344 14.0339 132.309 16.564C130.624 16.551 128.937 16.5575 127.251 16.5596C127.243 11.1868 127.253 5.81392 127.245 0.441061Z" fill="black"/>
<path d="M5.18904 21.6241C6.83521 19.8498 9.29578 19.0246 11.6782 19.005C14.0063 18.9551 16.4864 19.5067 18.2346 21.1333C19.6658 22.432 20.3955 24.3149 20.6822 26.1891C18.9426 26.2021 17.203 26.2087 15.4635 26.1826C15.1573 25.3747 14.7946 24.5234 14.0497 24.0239C12.3775 22.9011 9.73013 23.3702 8.75502 25.2075C7.86895 26.8928 8.01012 29.2361 9.42609 30.5977C10.6162 31.6879 12.549 31.8356 13.9259 31.019C14.7447 30.5326 15.1464 29.6291 15.4613 28.7735C17.2009 28.7496 18.9426 28.7561 20.6822 28.7691C20.4237 30.3871 19.8764 32.0093 18.7797 33.2581C17.5484 34.7045 15.7198 35.5254 13.8651 35.7968C11.4002 36.1617 8.73113 35.8859 6.60284 34.5068C4.87848 33.4123 3.67752 31.588 3.26054 29.5987C2.67201 26.8471 3.20842 23.7155 5.18904 21.6241Z" fill="black"/>
<path d="M29.5798 19.1332C31.8601 18.8009 34.2903 19.0594 36.3274 20.193C37.9388 21.0791 39.2158 22.5493 39.8499 24.278C40.9988 27.4314 40.4124 31.3535 37.8737 33.6795C35.3501 36.0075 31.5474 36.4614 28.3267 35.5862C25.9096 34.9304 23.7987 33.1343 22.9387 30.7606C21.9223 27.9765 22.2198 24.6277 24.0463 22.2388C25.3688 20.5014 27.4428 19.4503 29.5798 19.1332ZM30.6679 23.4658C27.7056 23.8502 26.6914 27.7593 28.2486 30.007C29.3757 31.7336 31.9535 32.0528 33.6149 30.9409C35.4348 29.6965 35.7128 26.9666 34.6486 25.1445C33.8625 23.7916 32.1664 23.1987 30.6679 23.4658Z" fill="black"/>
<path d="M90.6056 19.1418C92.8902 18.7987 95.3291 19.0506 97.377 20.1756C98.9884 21.053 100.274 22.5167 100.915 24.2411C102.09 27.414 101.497 31.3752 98.9255 33.7076C96.4301 35.9836 92.7078 36.4418 89.5284 35.6188C87.1047 34.9976 84.9656 33.2407 84.0643 30.8822C82.9958 28.085 83.2694 24.6884 85.1067 22.267C86.4141 20.5274 88.4773 19.4676 90.6056 19.1418ZM91.6958 23.4744C90.586 23.6547 89.5805 24.3844 89.0875 25.3986C88.3578 26.9145 88.449 28.8777 89.4936 30.2307C90.9747 32.1375 94.3236 32.018 95.6418 29.9853C96.6147 28.4651 96.5908 26.3238 95.5332 24.8535C94.6754 23.6742 93.0922 23.2182 91.6958 23.4744Z" fill="black"/>
<path d="M109.343 19.0875C111.411 18.8464 113.606 19.0962 115.428 20.156C116.957 21.0008 118.004 22.5709 118.247 24.2975C116.542 24.33 114.838 24.3148 113.133 24.3083C112.738 23.7285 112.295 23.0596 111.539 22.9532C110.829 22.8207 109.804 22.8815 109.504 23.6677C109.289 24.3496 109.949 24.8621 110.527 25.0402C112.544 25.7199 114.822 25.7395 116.625 26.9904C118.814 28.4542 119.005 31.9137 117.259 33.7923C115.832 35.3537 113.637 35.9162 111.591 35.9857C109.239 36.0596 106.702 35.5601 104.926 33.9139C103.903 32.9952 103.321 31.6966 103.056 30.3675C104.709 30.3805 106.366 30.311 108.018 30.3892C108.572 30.83 108.935 31.5228 109.634 31.7769C110.538 32.1135 111.667 32.1808 112.499 31.6271C112.998 31.2644 112.759 30.4934 112.268 30.248C111.18 29.6421 109.897 29.5791 108.711 29.2729C107.098 28.908 105.338 28.2978 104.437 26.8058C103.425 25.0445 103.582 22.6035 104.987 21.092C106.101 19.8737 107.738 19.2851 109.343 19.0875Z" fill="black"/>
<path d="M157.06 19.3003C159.36 18.7661 161.888 18.9072 164.01 19.9974C165.673 20.8183 166.863 22.4558 167.111 24.2975C165.406 24.33 163.701 24.3148 161.997 24.3083C161.601 23.7285 161.156 23.0596 160.403 22.9532C159.692 22.8207 158.667 22.8815 158.368 23.6677C158.153 24.3496 158.811 24.8621 159.391 25.0402C161.408 25.7199 163.686 25.7395 165.489 26.9904C167.678 28.4541 167.869 31.9137 166.123 33.7923C164.748 35.2994 162.648 35.8749 160.674 35.9748C158.3 36.0878 155.736 35.6317 153.903 34.0181C152.817 33.0908 152.191 31.7487 151.92 30.3674C153.572 30.3805 155.23 30.311 156.882 30.3892C157.436 30.83 157.797 31.525 158.498 31.7769C159.401 32.1135 160.529 32.1808 161.36 31.627C161.862 31.2665 161.623 30.4934 161.134 30.248C160.264 29.7441 159.236 29.6443 158.274 29.4227C156.756 29.1035 155.147 28.7256 153.979 27.6419C152.663 26.4149 152.382 24.3843 152.895 22.7208C153.481 20.8878 155.258 19.7194 157.06 19.3003Z" fill="black"/>
<path d="M45.5572 19.4372C47.2902 19.4351 49.0232 19.4307 50.7563 19.4394C51.6901 22.4625 52.5176 25.5224 53.5274 28.5216C54.509 25.5159 55.4038 22.482 56.3094 19.4546C58.049 19.422 59.7885 19.422 61.5259 19.4546C62.9853 24.8296 64.525 30.1808 65.9975 35.5536C64.1819 35.5645 62.3685 35.5623 60.553 35.5558C59.795 32.8325 59.1088 30.0896 58.303 27.3814C57.3887 30.0809 56.6569 32.8411 55.8012 35.5602C54.2832 35.558 52.7651 35.5688 51.2471 35.5493C50.424 32.8455 49.6661 30.12 48.7778 27.4379C47.9808 30.1373 47.262 32.8585 46.4758 35.5602C44.6754 35.5558 42.8751 35.571 41.0747 35.5515C42.5428 30.1721 44.0652 24.8079 45.5572 19.4372Z" fill="black"/>
<path d="M67.4744 19.4395C69.9458 19.4373 72.4194 19.4352 74.8908 19.4395C76.6043 19.4395 78.3873 19.7826 79.8011 20.8012C83.0261 23.0858 82.8654 28.7128 79.4602 30.7586C77.4122 32.079 74.8843 31.9487 72.5519 31.9161C72.5454 33.1279 72.5519 34.3419 72.5432 35.5559C70.8536 35.5624 69.164 35.5624 67.4744 35.5559C67.4679 30.1852 67.47 24.8124 67.4744 19.4395ZM72.5432 23.4855C72.5497 24.9514 72.5475 26.4195 72.5454 27.8875C73.6855 27.8354 74.9451 28.1112 75.9811 27.501C77.2407 26.7648 77.2971 24.6908 76.0636 23.9024C75.0146 23.24 73.7138 23.518 72.5432 23.4855Z" fill="black"/>
<path d="M120.514 19.4416C124.845 19.4351 129.178 19.4394 133.508 19.4394C133.508 20.7576 133.508 22.0781 133.508 23.3985C130.867 23.4072 128.226 23.3963 125.588 23.405C125.592 24.1195 125.592 24.8361 125.588 25.555C127.781 25.5876 129.975 25.5637 132.168 25.5702C132.168 26.8624 132.168 28.1524 132.168 29.4467C129.979 29.4576 127.79 29.4511 125.601 29.4511C125.592 30.1634 125.592 30.8779 125.596 31.5946C128.233 31.5946 130.871 31.5902 133.508 31.5967C133.508 32.915 133.508 34.2332 133.508 35.5536C129.178 35.558 124.847 35.5602 120.517 35.5515C120.514 30.1808 120.519 24.8101 120.514 19.4416Z" fill="black"/>
<path d="M135.547 19.4459C138.058 19.4307 140.568 19.4416 143.077 19.4373C144.959 19.4394 146.953 19.7891 148.462 20.9922C150.99 22.9728 150.986 27.3836 148.391 29.3099C148.232 29.5054 147.739 29.6748 147.963 29.9897C149.162 31.8639 150.491 33.6556 151.679 35.5406C149.69 35.5797 147.7 35.558 145.711 35.5537C144.712 34.0443 143.824 32.4589 142.755 30.9995C142.143 30.6673 141.324 30.9214 140.633 30.8562C140.629 32.422 140.629 33.9857 140.633 35.5515C138.937 35.5645 137.243 35.571 135.549 35.5471C135.556 30.1808 135.56 24.8123 135.547 19.4459ZM140.636 23.4788C140.629 24.5908 140.629 25.7027 140.633 26.8168C141.934 26.7516 143.387 27.0687 144.558 26.3499C145.431 25.8135 145.385 24.3758 144.493 23.885C143.318 23.2378 141.915 23.5288 140.636 23.4788Z" fill="black"/>
<path d="M9.60196 38.2574C12.8726 37.5625 16.684 38.2162 19.0056 40.7832C22.0612 44.1754 21.7528 50.1563 18.1369 53.0361C15.774 54.9341 12.5034 55.3468 9.60196 54.7409C7.13705 54.2349 4.87193 52.6148 3.83167 50.2932C2.65677 47.6654 2.75884 44.4404 4.23344 41.9515C5.38012 40.0144 7.42154 38.7178 9.60196 38.2574ZM10.9028 42.5662C8.18816 43.2785 7.46715 46.9683 8.97216 49.0857C10.171 50.8122 12.8509 51.0598 14.4732 49.8067C16.1476 48.4754 16.3539 45.8368 15.2745 44.0733C14.3885 42.6313 12.4773 42.1144 10.9028 42.5662Z" fill="black"/>
<path d="M41.8523 40.9156C43.3443 39.1239 45.6572 38.1814 47.9506 38.038C50.3612 37.8795 52.9607 38.3052 54.8697 39.8862C56.4703 41.1871 57.3172 43.1937 57.5887 45.1982C55.86 45.2048 54.1291 45.1961 52.4004 45.2026C52.0747 44.3665 51.6924 43.4761 50.8998 42.9787C49.2471 41.9363 46.7148 42.3793 45.7202 44.1319C44.9014 45.5913 44.9166 47.522 45.7984 48.951C46.8408 50.6124 49.297 51.0033 50.9106 49.9804C51.699 49.4787 52.0768 48.5905 52.4048 47.7587C54.1313 47.7674 55.8578 47.7587 57.5865 47.7631C57.3585 49.4157 56.77 51.0619 55.645 52.3215C54.4093 53.7397 52.5937 54.5389 50.7564 54.8038C48.4262 55.1404 45.9287 54.9124 43.8612 53.7179C42.1585 52.7515 40.8794 51.0945 40.3386 49.2159C39.546 46.4274 39.9434 43.1742 41.8523 40.9156Z" fill="black"/>
<path d="M95.9327 38.9588C97.6592 38.051 99.6876 37.8707 101.603 38.0901C103.508 38.3181 105.443 39.1216 106.637 40.6744C107.243 41.4302 107.525 42.3727 107.723 43.3066C106.009 43.2718 104.283 43.4238 102.58 43.2523C102.131 42.7137 101.716 42.0122 100.941 41.9427C100.198 41.7994 99.0013 41.9557 98.934 42.9026C98.9362 43.7235 99.8505 44.0211 100.5 44.2078C102.606 44.779 105.026 44.8941 106.683 46.486C108.279 48.1083 108.292 50.9706 106.824 52.6841C105.827 53.859 104.339 54.5018 102.854 54.7907C101.203 55.0947 99.4856 55.0643 97.8503 54.6864C96.1325 54.2868 94.4754 53.353 93.4916 51.8545C92.9813 51.1139 92.725 50.2409 92.5252 49.3765C94.1562 49.3852 95.7937 49.3049 97.4225 49.4004C97.9828 49.6654 98.239 50.3625 98.8232 50.6405C99.731 51.1205 100.899 51.1856 101.827 50.7274C102.387 50.4711 102.348 49.6545 101.866 49.344C101.149 48.8336 100.244 48.7272 99.4096 48.5339C97.7678 48.1951 96.0108 47.8737 94.6991 46.7509C93.4243 45.6716 93.0551 43.8408 93.357 42.2555C93.6241 40.8221 94.6578 39.6211 95.9327 38.9588Z" fill="black"/>
<path d="M109.224 38.429C114.175 38.4442 119.129 38.4376 124.081 38.4333C124.078 39.8189 124.076 41.2044 124.083 42.5922C122.45 42.5922 120.819 42.5878 119.185 42.5965C119.181 46.586 119.192 50.5754 119.181 54.5671C117.494 54.5606 115.806 54.5606 114.121 54.5671C114.097 50.5798 114.108 46.5947 114.114 42.6095C112.483 42.577 110.853 42.5922 109.222 42.5965C109.213 41.2066 109.211 39.8189 109.224 38.429Z" fill="black"/>
<path d="M149.284 38.4421C150.934 38.4334 152.585 38.4334 154.237 38.4421C156.522 43.8193 158.841 49.1813 161.119 54.5606C159.321 54.5628 157.521 54.5628 155.723 54.5606C155.419 53.7636 155.11 52.9709 154.802 52.1761C152.767 52.1696 150.732 52.1739 148.697 52.1739C148.393 52.9666 148.091 53.7636 147.796 54.5606C145.991 54.5628 144.186 54.565 142.382 54.5585C144.658 49.1769 146.992 43.8193 149.284 38.4421ZM150.17 48.3625C151.221 48.3777 152.276 48.3777 153.329 48.3625C152.821 46.9748 152.35 45.5697 151.748 44.2189C151.147 45.5697 150.671 46.9726 150.17 48.3625Z" fill="black"/>
<path d="M23.1711 38.4485C25.712 38.4333 28.2529 38.4398 30.7917 38.442C32.7397 38.4528 34.8202 38.8589 36.31 40.1967C38.0387 41.743 38.3775 44.449 37.4589 46.5121C37.0441 47.4699 36.2427 48.1735 35.4261 48.7881C36.7096 50.7188 38.0431 52.6169 39.3135 54.5562C37.3112 54.5627 35.3067 54.5779 33.3044 54.5475C32.3358 52.9665 31.3172 51.4202 30.3269 49.8544C29.632 49.8522 28.937 49.8522 28.2421 49.8544C28.2442 51.4246 28.2507 52.9947 28.2355 54.5649C26.5481 54.5606 24.8628 54.5606 23.1754 54.5627C23.1602 49.192 23.1689 43.8192 23.1711 38.4485ZM28.2421 42.477C28.2464 43.5846 28.2486 44.6944 28.2377 45.8041C29.5017 45.7759 30.8677 46.03 32.0404 45.4371C33.022 44.9593 33.0589 43.4 32.0969 42.8832C30.922 42.2382 29.5212 42.5335 28.2421 42.477Z" fill="black"/>
<path d="M59.7038 38.4463C61.3956 38.4289 63.0874 38.4332 64.777 38.4441C64.7879 40.4117 64.7879 42.3814 64.777 44.3512C66.6881 44.3599 68.5992 44.3512 70.5082 44.3577C70.5147 42.3858 70.506 40.4139 70.5147 38.4441C72.2043 38.4332 73.8939 38.4311 75.5835 38.4441C75.5879 43.817 75.5965 49.1898 75.5792 54.5648C73.8917 54.5605 72.2043 54.5605 70.519 54.5627C70.5038 52.556 70.5125 50.5471 70.5125 48.5383C68.5992 48.5383 66.6881 48.5253 64.7748 48.547C64.7857 50.5537 64.7965 52.5603 64.7683 54.5692C63.0809 54.5562 61.3956 54.5627 59.7103 54.5648C59.7017 49.192 59.7125 43.8191 59.7038 38.4463Z" fill="black"/>
<path d="M77.9942 38.4637C82.3268 38.416 86.6616 38.4464 90.9942 38.4485C90.9985 39.7668 91.0007 41.085 90.9898 42.4054C88.3534 42.4054 85.7169 42.3989 83.0826 42.4076C83.0782 43.1286 83.0804 43.8518 83.0869 44.5728C85.276 44.5728 87.4629 44.5685 89.6521 44.575C89.6586 45.8715 89.6651 47.1659 89.6412 48.4624C87.4543 48.4515 85.2695 48.4515 83.0826 48.4624C83.0782 49.1682 83.0782 49.8784 83.0826 50.5885C85.7147 50.6015 88.349 50.5972 90.9812 50.5907C91.0072 51.9133 91.0029 53.238 90.9877 54.5606C86.6594 54.5563 82.329 54.5628 78.0007 54.5584C78.0007 49.1921 78.0137 43.8279 77.9942 38.4637Z" fill="black"/>
<path d="M125.842 38.4484C128.398 38.4354 130.956 38.4398 133.514 38.4419C135.456 38.4615 137.53 38.8741 139.007 40.2227C140.666 41.7256 141.016 44.3034 140.208 46.3275C139.808 47.3677 138.97 48.1452 138.088 48.7837C139.385 50.7122 140.705 52.6277 141.995 54.5627C139.993 54.5583 137.99 54.5714 135.988 54.554C135.009 52.9817 133.988 51.4397 133.015 49.8652C132.313 49.8522 131.614 49.85 130.915 49.85C130.908 51.4224 130.917 52.9947 130.908 54.567C129.221 54.5605 127.533 54.5605 125.848 54.567C125.822 49.1942 125.837 43.8213 125.842 38.4484ZM130.915 42.4727C130.91 43.5846 130.913 44.6987 130.913 45.8128C132.185 45.7672 133.575 46.0408 134.748 45.4132C135.684 44.9245 135.714 43.4304 134.8 42.9048C133.625 42.2273 132.203 42.54 130.915 42.4727Z" fill="black"/>
</g>
<defs>
<filter id="filter0_d_58_71028" x="0" y="0" width="170.298" height="61" filterUnits="userSpaceOnUse" color-interpolation-filters="sRGB">
<feFlood flood-opacity="0" result="BackgroundImageFix"/>
<feColorMatrix in="SourceAlpha" type="matrix" values="0 0 0 0 0 0 0 0 0 0 0 0 0 0 0 0 0 0 127 0" result="hardAlpha"/>
<feOffset dy="3"/>
<feGaussianBlur stdDeviation="1.5"/>
<feComposite in2="hardAlpha" operator="out"/>
<feColorMatrix type="matrix" values="0 0 0 0 0 0 0 0 0 0 0 0 0 0 0 0 0 0 0.04 0"/>
<feBlend mode="normal" in2="BackgroundImageFix" result="effect1_dropShadow_58_71028"/>
<feBlend mode="normal" in="SourceGraphic" in2="effect1_dropShadow_58_71028" result="shape"/>
</filter>
</defs>
</svg>
